<?xml version="1.0" encoding="UTF-8" standalone="no"?>
<!DOCTYPE svg PUBLIC "-//W3C//DTD SVG 1.1//EN" "http://www.w3.org/Graphics/SVG/1.1/DTD/svg11.dtd">
<svg width="100%" height="100%" viewBox="0 0 233 101" version="1.1" xmlns="http://www.w3.org/2000/svg" xmlns:xlink="http://www.w3.org/1999/xlink" xml:space="preserve" style="fill-rule:evenodd;clip-rule:evenodd;stroke-linejoin:round;stroke-miterlimit:1.41421;">
    <g transform="matrix(1,0,0,1,103,-179)">
        <g>
            <path d="M105.442,225.948C102.455,225.996 99.611,226.61 97.004,227.677C92.413,214.256 79.593,204.7 64.642,204.94C61.138,204.996 57.768,205.588 54.609,206.633C48.805,191.566 34.074,180.985 16.989,181.258C0.431,181.523 -13.584,191.91 -19.275,206.429C-23.777,204.643 -28.696,203.692 -33.839,203.774C-49.016,204.016 -61.957,213.153 -67.797,226.136C-70.754,224.848 -74.024,224.151 -77.459,224.206C-90.312,224.411 -100.571,235 -100.362,247.856C-100.158,260.712 -89.571,270.968 -76.713,270.762C-71.344,270.676 -66.431,268.773 -62.541,265.656C-55.462,274.291 -44.661,279.735 -32.628,279.544C-22.773,279.386 -13.858,275.476 -7.219,269.201C-0.343,275.34 8.766,279.014 18.706,278.854C29.654,278.679 39.442,273.888 46.262,266.374C51.798,270.148 58.508,272.317 65.716,272.202C74.119,272.066 81.746,268.855 87.559,263.667C91.902,269.15 98.654,272.625 106.188,272.505C119.044,272.298 129.3,261.71 129.093,248.853C128.887,235.997 118.3,225.741 105.442,225.948" style="fill:rgb(116,183,185);fill-rule:nonzero;"/>
            <path d="M103.443,223.947C100.455,223.995 97.612,224.609 95.004,225.676C90.414,212.255 77.593,202.699 62.642,202.939C59.138,202.995 55.769,203.587 52.609,204.632C46.806,189.565 32.075,178.984 14.99,179.257C-1.569,179.522 -15.584,189.909 -21.275,204.428C-25.775,202.642 -30.695,201.691 -35.838,201.773C-51.015,202.015 -63.957,211.152 -69.797,224.135C-72.754,222.847 -76.024,222.15 -79.459,222.205C-92.312,222.41 -102.571,232.999 -102.362,245.855C-102.158,258.711 -91.571,268.967 -78.713,268.761C-73.343,268.676 -68.43,266.773 -64.541,263.655C-57.461,272.29 -46.659,277.734 -34.627,277.543C-24.771,277.385 -15.858,273.476 -9.218,267.201C-2.342,273.339 6.766,277.013 16.707,276.853C27.654,276.677 37.442,271.888 44.262,264.373C49.798,268.147 56.508,270.316 63.717,270.201C72.119,270.066 79.746,266.854 85.56,261.666C89.902,267.148 96.654,270.624 104.188,270.504C117.045,270.297 127.301,259.709 127.094,246.852C126.889,233.996 116.3,223.74 103.443,223.947" style="fill:white;fill-rule:nonzero;"/>
        </g>
    </g>
</svg>
