<?xml version="1.0" encoding="UTF-8" standalone="no"?>
<!DOCTYPE svg PUBLIC "-//W3C//DTD SVG 1.1//EN" "http://www.w3.org/Graphics/SVG/1.1/DTD/svg11.dtd">
<svg width="100%" height="100%" viewBox="0 0 843 205" version="1.1" xmlns="http://www.w3.org/2000/svg" xmlns:xlink="http://www.w3.org/1999/xlink" xml:space="preserve" style="fill-rule:evenodd;clip-rule:evenodd;stroke-linejoin:round;stroke-miterlimit:1.41421;">
    <g transform="matrix(1,0,0,1,72,-306)">
        <g transform="matrix(1,0,0,1,99.7176,17.0107)">
            <path d="M479.948,493.322L670.385,493.322L670.385,471.055L670.385,375.803C660.225,367.978 647.497,363.316 633.671,363.316C631.55,363.316 629.452,363.428 627.387,363.642C618.653,321.145 580.987,289.19 535.844,289.19C497.423,289.19 464.425,312.34 450.061,345.431C441.048,337.722 429.346,333.056 416.548,333.056C406.954,333.056 397.977,335.681 390.282,340.238C387.555,339.701 384.735,339.414 381.85,339.414C369.993,339.414 359.255,344.17 351.427,351.872C339.339,336.152 320.337,326.009 298.952,326.009C268.462,326.009 242.803,346.619 235.159,374.644C226.38,367.769 215.38,363.669 203.43,363.669C189.669,363.669 177.165,369.103 167.868,377.959C157.142,362.607 140.102,352.679 120.91,352.679C111.924,352.679 103.418,354.871 95.804,358.764C81.048,340.94 50.724,346.203 39.225,353.074C8.317,371.542 13.544,384.804 4.444,388.374C-5.047,362.892 -29.588,344.739 -58.375,344.739C-82.891,344.739 -104.323,357.907 -116.009,377.552C-124.475,372.308 -134.455,369.273 -145.146,369.273C-154.687,369.273 -163.664,371.685 -171.503,375.929L-171.503,493.322L479.948,493.322Z" style="fill:rgb(171,221,220);fill-rule:nonzero;"/>
        </g>
    </g>
</svg>
