<?xml version="1.0" encoding="UTF-8" standalone="no"?>
<!DOCTYPE svg PUBLIC "-//W3C//DTD SVG 1.1//EN" "http://www.w3.org/Graphics/SVG/1.1/DTD/svg11.dtd">
<svg width="100%" height="100%" viewBox="0 0 843 157" version="1.1" xmlns="http://www.w3.org/2000/svg" xmlns:xlink="http://www.w3.org/1999/xlink" xml:space="preserve" style="fill-rule:evenodd;clip-rule:evenodd;stroke-linejoin:round;stroke-miterlimit:1.41421;">
    <g transform="matrix(1,0,0,1,197,-510)">
        <g transform="matrix(1,0,0,1,483.51,173.678)">
            <path d="M161.516,493.322L-680.374,491.822L-680.374,337.342C-676.981,336.905 -673.53,336.656 -670.019,336.656C-635.058,336.656 -605.318,358.961 -594.222,390.113C-589.156,388.089 -583.633,386.965 -577.845,386.965C-562.832,386.965 -549.578,394.459 -541.595,405.902C-535.561,403.052 -528.82,401.453 -521.706,401.453C-514.673,401.453 -508.01,403.018 -502.032,405.805C-492.822,394.323 -478.685,386.965 -462.82,386.965C-441.63,386.965 -423.519,400.086 -416.131,418.642C-409.729,415.292 -402.45,413.389 -394.72,413.389C-390.917,413.389 -387.225,413.856 -383.689,414.721C-376.347,398.913 -360.322,387.946 -341.722,387.946C-324.575,387.946 -309.619,397.268 -301.631,411.108C-290.995,400.657 -276.407,394.202 -260.303,394.202C-251.671,394.202 -243.479,396.069 -236.09,399.399C-227.493,385.35 -211.988,375.971 -194.291,375.971C-182.748,375.971 -172.146,379.969 -163.777,386.641C-154.589,357.661 -127.446,336.655 -95.38,336.655C-59.649,336.655 -30.029,362.741 -24.562,396.88C-16.656,393.067 -7.787,390.93 1.582,390.93C15.934,390.93 29.112,395.944 39.455,404.313C64.877,374.176 108.813,345.916 161.516,339.228L161.516,493.322Z" style="fill:white;"/>
        </g>
    </g>
</svg>
