<?xml version="1.0" encoding="UTF-8" standalone="no"?>
<!DOCTYPE svg PUBLIC "-//W3C//DTD SVG 1.1//EN" "http://www.w3.org/Graphics/SVG/1.1/DTD/svg11.dtd">
<svg width="100%" height="100%" viewBox="0 0 142 74" version="1.1" xmlns="http://www.w3.org/2000/svg" xmlns:xlink="http://www.w3.org/1999/xlink" xml:space="preserve" style="fill-rule:evenodd;clip-rule:evenodd;stroke-linejoin:round;stroke-miterlimit:1.41421;">
    <g transform="matrix(1,0,0,1,-223,-167)">
        <g>
            <path d="M346.846,196.247C340.746,196.149 335.32,199.152 332.068,203.8C331.951,203.637 331.831,203.476 331.711,203.316C332.242,201.288 332.545,199.167 332.579,196.976C332.817,182.238 321.062,170.102 306.325,169.866C296.002,169.701 286.963,175.422 282.389,183.929C279.965,183.143 277.387,182.696 274.705,182.653C262.08,182.452 251.404,191.209 248.721,203.051C246.582,201.898 244.15,201.218 241.552,201.177C232.893,201.037 225.763,207.945 225.624,216.603C225.486,225.262 232.393,232.393 241.052,232.531C246.504,232.617 251.347,229.909 254.223,225.73C258.942,231.338 265.965,234.951 273.868,235.078C281.252,235.196 287.967,232.246 292.809,227.41C296.531,234.795 304.123,239.917 312.967,240.058C322.396,240.209 330.583,234.655 334.25,226.588C337.369,229.62 341.589,231.526 346.281,231.602C356.044,231.758 364.085,223.97 364.24,214.206C364.398,204.443 356.61,196.403 346.846,196.247" style="fill:rgb(116,183,185);fill-rule:nonzero;"/>
            <path d="M344.775,194.225C338.675,194.127 333.248,197.129 329.997,201.778C329.879,201.614 329.76,201.454 329.64,201.294C330.171,199.266 330.474,197.143 330.509,194.954C330.745,180.216 318.991,168.079 304.254,167.844C293.932,167.679 284.893,173.4 280.318,181.906C277.894,181.119 275.315,180.673 272.634,180.63C260.01,180.428 249.331,189.186 246.65,201.028C244.511,199.876 242.079,199.195 239.482,199.154C230.822,199.016 223.692,205.923 223.553,214.581C223.415,223.239 230.321,230.371 238.981,230.509C244.433,230.596 249.277,227.887 252.152,223.708C256.869,229.316 263.894,232.931 271.797,233.058C279.18,233.175 285.896,230.224 290.739,225.388C294.46,232.774 302.052,237.897 310.897,238.039C320.32,238.189 328.504,232.641 332.175,224.579C335.293,227.608 339.521,229.504 344.211,229.58C353.974,229.737 362.014,221.947 362.169,212.185C362.327,202.42 354.538,194.38 344.775,194.225" style="fill:white;fill-rule:nonzero;"/>
        </g>
    </g>
</svg>
